<svg width="28" height="28" viewBox="0 0 28 28" fill="none" xmlns="http://www.w3.org/2000/svg">
<path d="M15.0538 28H12.9191C12.6632 27.8985 12.3897 27.9145 12.1242 27.8765C9.06883 27.4382 6.42007 26.1584 4.21667 23.999C1.98572 21.8128 0.631108 19.1718 0.152839 16.0759C0.104573 15.7669 0.125783 15.4455 0 15.1496V12.9077C0.0614291 12.8763 0.0497283 12.8164 0.0548474 12.7616C0.265461 10.4422 0.974818 8.28648 2.28238 6.35648C4.97868 2.37813 8.74486 0.236277 13.551 0.0156635C16.4762 -0.11875 19.2163 0.610297 21.6318 2.26563C26.4138 5.54123 28.5345 10.1157 27.8859 15.8728C27.5078 19.231 25.9501 22.0515 23.4571 24.3372C21.3598 26.2599 18.8887 27.4295 16.0666 27.8524C15.7295 27.8999 15.3821 27.8882 15.0538 28ZM6.49759 8.41213L6.44859 8.47057C6.50908 8.50979 6.56743 8.55222 6.62337 8.59768C9.01959 10.7176 11.4146 12.8393 13.8084 14.9626C13.9744 15.1087 14.0695 15.1043 14.2318 14.9626C16.493 12.9508 18.7581 10.9436 21.027 8.94102C21.2091 8.77958 21.3927 8.61522 21.6121 8.41506L6.49759 8.41213ZM21.3854 19.5889L21.4285 19.5261C21.3856 19.5104 21.3444 19.4904 21.3057 19.4662C19.5213 18.0797 17.7386 16.6917 15.9577 15.3023C15.8333 15.2051 15.7646 15.2292 15.6651 15.3242C15.2951 15.6617 14.9178 15.9919 14.5411 16.3221C14.1477 16.6662 13.8976 16.6676 13.5107 16.3287C13.1407 16.0043 12.7677 15.6836 12.4072 15.3483C12.2778 15.2278 12.1959 15.2132 12.0467 15.3301C10.2974 16.701 8.54473 18.068 6.78864 19.4311C6.73891 19.4698 6.65262 19.4881 6.66213 19.5896L21.3854 19.5889ZM5.41088 18.9139C5.47158 18.8774 5.51033 18.8591 5.54324 18.8336C7.40561 17.3857 9.26872 15.9386 11.1326 14.4922C11.2913 14.3694 11.2335 14.3125 11.1209 14.2131C9.27652 12.5855 7.43365 10.9563 5.59224 9.32527C5.54324 9.28217 5.50302 9.2135 5.41088 9.22227V18.9139ZM22.6139 18.9285V9.17624L16.7497 14.3665L22.6139 18.9285Z" fill="#562C3E"/>
</svg>
