<svg width="26" height="26" viewBox="0 0 26 26" fill="none" xmlns="http://www.w3.org/2000/svg">
<path d="M11.9901 0H14.0217C14.3848 0.108562 14.7681 0.104491 15.1352 0.16895C17.7945 0.630339 20.1227 1.76753 22.0409 3.66669C25.1284 6.72339 26.4224 10.443 25.8795 14.7488C25.4934 17.8429 24.1024 20.4687 21.7953 22.5653C18.8042 25.2848 15.2642 26.3867 11.2593 25.8805C8.39852 25.5196 5.93128 24.2826 3.87932 22.2552C1.82736 20.2278 0.582205 17.7832 0.141821 14.9273C0.0970357 14.641 0.116712 14.3424 0 14.0669V11.9859C0.0569989 11.9568 0.0461413 11.9018 0.0502127 11.8502C0.10236 11.2952 0.187558 10.7437 0.305351 10.1987C1.39104 5.03389 5.82814 0.882746 11.053 0.142488C11.3652 0.0997417 11.6875 0.111955 11.9901 0ZM17.7674 21.0007C17.8854 20.9932 18.0476 20.9952 18.2057 20.9722C19.1028 20.8412 19.8343 20.466 20.1987 19.5765C20.4409 18.9909 20.694 18.4101 20.9281 17.8218C21.0964 17.4005 20.9824 17.0307 20.6078 16.8095C19.6538 16.2468 18.695 15.6927 17.7314 15.1471C17.3548 14.9341 16.9334 15.0569 16.6851 15.4185C16.6471 15.4742 16.6125 15.5332 16.5751 15.5895C15.7697 16.8054 14.3318 17.0388 13.1824 16.1384C11.9428 15.1658 10.8251 14.0472 9.85335 12.8069C9.56613 12.4595 9.38916 12.0342 9.34511 11.5856C9.263 10.6153 9.68439 9.90698 10.4844 9.39402C10.9988 9.06426 11.0917 8.67548 10.7864 8.14488C10.272 7.2506 9.75903 6.35632 9.23993 5.46475C8.98819 5.03186 8.62923 4.90633 8.16102 5.08885C7.69282 5.27137 7.23072 5.44914 6.77744 5.6527C6.39609 5.8264 5.98828 5.96074 5.69175 6.29186C5.16112 6.89166 4.97926 7.60342 5.00844 8.38304C5.04915 9.45305 5.4054 10.4355 5.87428 11.3807C6.83919 13.328 8.18138 14.9972 9.71967 16.515C11.1847 17.9609 12.7881 19.2243 14.6446 20.1383C15.6184 20.618 16.626 20.9735 17.7674 21.0007Z" fill="#562C3E"/>
</svg>
